<svg width="24" height="17" viewBox="0 0 24 17" fill="none" xmlns="http://www.w3.org/2000/svg">
<path d="M18.1632 1.60699L12.0663 6.25423L5.82812 1.60699V1.60787L5.83662 1.61389V8.12224L11.9956 12.8691L18.1632 8.30565V8.3056V1.60699Z" fill="#EB3131"/>
<path d="M19.7647 0.476397L18.1633 1.60681V8.30542L23.2031 4.52691V2.25051C23.2031 2.25051 22.5908 -0.999416 19.7647 0.476397Z" fill="#F6B60B"/>
<path d="M18.1633 8.30559V16.9929H22.0256C22.0256 16.9929 23.1246 16.883 23.2031 15.6584V4.52703L18.1633 8.30554V8.30559Z" fill="#3BAD49"/>
<path d="M5.83662 17V8.12219L5.82812 8.11563L5.83662 17Z" fill="#C62025"/>
<path d="M5.82813 1.60791L4.23521 0.483529C1.40918 -0.992286 0.796875 2.25765 0.796875 2.25765V4.53417L5.82813 8.11572V1.60791Z" fill="#C62025"/>
<path d="M5.82812 1.60769V8.1155L5.83662 8.12207V1.61372L5.82812 1.60769Z" fill="#C62025"/>
<path d="M0.796875 4.53407V15.6655C0.875376 16.8901 1.97439 17 1.97439 17H5.83662L5.82813 8.11563L0.796875 4.53407Z" fill="#5778C5"/>
</svg>
